<svg xmlns="http://www.w3.org/2000/svg" width="360.232" height="551.078"><path d="M7.051 364.008.556 376.643l1.819 45.991 11.4 10.62 12.473 9.739 92.945 70.02 48.756 35.949 161.724-60.28-19.268-15.9-3.853-24.57 9.425-18.73 5.587-1.82.549-6.058-78.313-46.917-70.246-42.3-8.979-7.636z" style="fill:#d1d3d4"/><path d="m159.083 534.845-4.471-36.227 7.538-15.027 154.091-51.084-10.076 18.311 6.329 31.009z" style="fill:#fff"/><path d="m130.109 398.764-5.364-11.149 5.854-12.192 18.96-3.329L163 374.9l5.3 7.26-1.6 8.235-4.781-1.653-12.986-1.519-15.066 3.7zm38.614 9.751-1.983-15.956 50.443 19.933-22.791 6.845z" style="fill:#939598"/><path d="m277.8 56.108-29.59-12.921-35 13.524-9.342 23.7 11.432 25.96 12.833 5.41-24.1 59.8-33.275 80.69.08 4.967 7.867 5.492 10.554-1.9 1.878-4.135 17.373 18.955 8.605-2.3 3.243-13.23-7.484-8.739 1.874-4.35 4.8 3.164 6.043-.53 4.739-14.335-24.265-17.76 16.1-46.708 19.65-54.762 7.825 2.9L281 107.477l5.656-24.5zm-8.033 37.938-19.072 9.812-26.115-11.642-6.531-16.571 6.681-14.581 21.57-1.859 21.133 10.9 6.653 10.7z" style="fill:#ffb842"/><path d="m325.582 58.586-10.39-1.129L346.708 1.64l12.017 21.845z" style="fill:#bcbec0"/><path d="m345.354 24.994 1.354-23.354-30.257 53.2z" style="fill:#ff5e4c"/><path d="m175.671 248.956-4.834 8.285-.323-6.475 57.621-138.985 2.053 33.89-32.113 72.246zm31.409-8.282-20.617 7.676 17.769 3.172zm10.92 7.169 4.559-12.172-13.3 5.83z" style="fill:#ffeca7"/><path d="m216.118 103.549 8.463-11.334 26.113 11.643-1.618 6.941z" style="fill:#fff200"/><path d="m247.722 53.351.489-10.164L277.8 56.108l-9.642 5.125z" style="fill:#ffeca7"/><path d="m218.049 75.645-14.182 4.764 9.342-23.7 35-13.523-.489 10.164-24.946 7.314z" style="fill:#fff200"/><path d="m87.3 208.458-6.647-10.264 12.829-8.416 7.071 9.825z" style="fill:#ec008c"/><path d="m87.3 208.458-6.647-10.264 12.829-8.416 7.071 9.825z" style="stroke:#000;stroke-miterlimit:10;stroke-width:1.5px;fill:none"/><path d="m4 295.352 20.742.1L27 301.466l-17.642 4.6z" style="fill:#f1f2f2"/><path d="m4 295.352 20.742.1L27 301.466l-17.642 4.6z" style="stroke:#000;stroke-miterlimit:10;stroke-width:1.5px;fill:none"/><path d="m329.932 221.852-9.579-4.6 12.374-9.7 3.157 8.16z" style="fill:#f1f2f2"/><path d="m359.3 22.57-33.508 35.8-10.655-.632 31.511-56.243z" style="fill:#e6e7e8"/><g style="clip-path:url(#dmyc0jh5ya)"><path d="m359.3 22.57-33.508 35.8-10.655-.632 31.511-56.243z" style="stroke:#000;stroke-miterlimit:10;stroke-width:1.5px;fill:none"/><path d="m359.057 22.434-13.746 2.3 1.782-21.024" style="stroke:#000;stroke-miterlimit:10;stroke-width:1.5px;fill:none"/></g><path transform="translate(345.311 24.729)" style="stroke:#000;stroke-miterlimit:10;stroke-width:1.5px;fill:none" d="m0 0 2.734 10.19"/><path transform="translate(315.894 24.042)" style="stroke:#000;stroke-miterlimit:10;stroke-width:1.5px;fill:none" d="M29.645 0 0 33.046"/><path d="m346.637 1.235-1.367 22.491 13.8-1.517z"/><path d="m100.384 199.03-13.23 9.77-6-10.674 11.453-8.77z" style="fill:#f1f2f2"/><path d="m100.384 199.03-13.23 9.77-6-10.674 11.453-8.77zm219.908 18.508 12.546-10.321 3.476 8.173-6.162 6.948z" style="stroke:#000;stroke-miterlimit:10;stroke-width:1.5px;fill:none"/><path transform="translate(75.77 248.857)" style="stroke:#000;stroke-miterlimit:10;stroke-width:1.5px;fill:none" d="m0 0 6.926 7.51"/><path transform="translate(87.236 190.299)" style="stroke:#000;stroke-miterlimit:10;stroke-width:1.5px;fill:none" d="M0 18.254 4.925 0"/><path d="m3.812 294.863 21.388.4 1.866 7.091-17.545 3.688z" style="stroke:#000;stroke-miterlimit:10;stroke-width:1.5px;fill:none"/><path transform="translate(336.349 274.042)" style="stroke:#000;stroke-miterlimit:10;stroke-width:1.5px;fill:none" d="M19.627 0 0 11.943"/><path transform="translate(133.341 115.248)" style="stroke:#000;stroke-miterlimit:10;stroke-width:1.5px;fill:none" d="m0 0 5.791 19.446"/><path d="m8.73 364.9 153.582 117.807 159.759-54.32 1.086-5.776-82.84-49.5-65.781-39.837-9.17-8.139z" style="stroke:#000;stroke-miterlimit:10;stroke-width:1.5px;fill:none"/><g style="clip-path:url(#dmyc0jh5ya)"><path d="m162.312 482.708-7.829 14.782 5.058 38.811 9.449 12.815" style="stroke:#000;stroke-miterlimit:10;stroke-width:1.5px;fill:none"/><path d="M7.377 364.975.758 376.769l1.922 46.7 11.827 10.792 154.009 115.971 163.684-61.1" style="stroke:#000;stroke-miterlimit:10;stroke-width:1.5px;fill:none"/></g><path transform="translate(312.74 475.308)" style="stroke:#000;stroke-miterlimit:10;stroke-width:1.5px;fill:none" d="M18.951 14.397 0 0"/><g style="clip-path:url(#dmyc0jh5ya)"><path d="M169.448 548.751 317.2 486.242l-5.172-4.653-4.608-32.2 9.661-19.359" style="stroke:#000;stroke-miterlimit:10;stroke-width:1.5px;fill:none"/></g><path d="m150.134 398.685-19.063.441-6.6-10.912 5.993-13.726 17.79-3.286 15.236 4.124 4.743 6.643-1.924 10.281 52.1 19.832-54.1 16.468z" style="stroke:#000;stroke-miterlimit:10;stroke-width:1.5px;fill:none"/><path d="m195.428 418.651-27.092-10.645L166 392.444" style="stroke:#000;stroke-miterlimit:10;stroke-width:1.5px;fill:none"/><path transform="translate(162.344 449.389)" style="stroke:#000;stroke-miterlimit:10;stroke-width:1.5px;fill:none" d="M145.077 0 0 33.854"/><path d="M154.483 497.489 97.732 460.47l-83.225-26.209" style="stroke:#000;stroke-miterlimit:10;stroke-width:1.5px;fill:none"/><path transform="translate(148.862 325.645)" style="stroke:#000;stroke-miterlimit:10;stroke-width:1.5px;fill:none" d="M16.765 0 0 46.332"/><path d="m130.574 397.386 2.3-6.415 16.534-3.98 14.611 1.9 2.055 4.357" style="stroke:#000;stroke-miterlimit:10;stroke-width:1.5px;fill:none"/><path transform="translate(148.362 371.863)" style="stroke:#000;stroke-miterlimit:10;stroke-width:1.5px;fill:none" d="m0 0 .986 14.483"/><path transform="translate(130.463 374.489)" style="stroke:#000;stroke-miterlimit:10;stroke-width:1.5px;fill:none" d="M2.578 16.47 0 0"/><path transform="translate(162.508 375.04)" style="stroke:#000;stroke-miterlimit:10;stroke-width:1.5px;fill:none" d="M1.323 13.544 0 0"/><path d="m159.541 536.3-38.213-21.87-23.6-53.96" style="stroke:#000;stroke-miterlimit:10;stroke-width:1.5px;fill:none"/><g style="clip-path:url(#dmyc0jh5ya)"><path d="m.758 376.769 20.408 19.3 23.125-3.716" style="stroke:#000;stroke-miterlimit:10;stroke-width:1.5px;fill:none"/></g><path transform="translate(149.741 333.275)" style="stroke:#000;stroke-miterlimit:10;stroke-width:1.5px;fill:none" d="M24.795 0 0 37.902"/><path transform="translate(160.428 481.588)" style="stroke:#000;stroke-miterlimit:10;stroke-width:1.5px;fill:none" d="M151.6 0 0 53.851"/><path transform="translate(21.166 396.067)" style="stroke:#000;stroke-miterlimit:10;stroke-width:1.5px;fill:none" d="M76.566 64.403 0 0"/><path transform="translate(14.572 396.068)" style="stroke:#000;stroke-miterlimit:10;stroke-width:1.5px;fill:none" d="M0 38.158 6.595 0"/><path transform="translate(216.226 411.779)" style="stroke:#000;stroke-miterlimit:10;stroke-width:1.5px;fill:none" d="M106.931 10.832 0 0"/><path transform="translate(44.039 388.214)" style="stroke:#000;stroke-miterlimit:10;stroke-width:1.5px;fill:none" d="M80.431 0 0 3.132"/><path transform="translate(11.337 365.605)" style="stroke:#000;stroke-miterlimit:10;stroke-width:1.5px;fill:none" d="m0 0 119.125 8.883"/><path transform="translate(162.892 428.55)" style="stroke:#000;stroke-miterlimit:10;stroke-width:1.5px;fill:none" d="M1.414 0 0 53.937"/><path transform="translate(168.117 373.116)" style="stroke:#000;stroke-miterlimit:10;stroke-width:1.5px;fill:none" d="M0 8.645 72.198 0"/><path d="m120.755 514.331 38.651 22.035 9.221 13.08zm29.98-115.731-19.918-.109 2.8-7.524 15.777-3.974 13.957 1.762 2 4.425 2.815 14.546L194.8 418.9l-30.18 9.162z"/><path transform="translate(160.862 482.918)" style="stroke:#000;stroke-miterlimit:10;stroke-width:1.5px;fill:none" d="M2.054 0 0 52.497"/><path d="m311.4 472.523 1.182 8.911 3.866 4.962-145.92 62.289 161.036-59.3z"/><path transform="translate(44.317 392.412)" style="stroke:#000;stroke-miterlimit:10;stroke-width:1.5px;fill:none" d="M53.415 68.058 0 0"/><path transform="translate(164.998 422.327)" style="stroke:#000;stroke-miterlimit:10;stroke-width:1.5px;fill:none" d="M157.04 0 0 59.17"/><path transform="translate(205.43 115.316)" style="stroke:#000;stroke-miterlimit:10;stroke-width:1.5px;fill:none" d="M0 101.276 35.146 0"/><path d="m228.7 110.3-58.242 141.264.168 4.952 7.772 5.334 10.207-1.993 1.942-4.662m25.338-151.277-11.919-24.7 8.863-23.62 35.29-13.268 29.721 13.58 8.6 26.163-5.97 25.1-31.88 10.819z" style="stroke:#000;stroke-miterlimit:10;stroke-width:1.5px;fill:none"/><path d="M224.183 91.918 217.4 75.164l5.03-14.894 25-7.349 22.17 9.423 5.187 17.088-5.511 14.1-19.149 10.052z" style="stroke:#000;stroke-miterlimit:10;stroke-width:1.5px;fill:none"/><path d="m215.885 103.918 33.024 7.021 26.164-7.463 11.364-21.4m-12.106-2.718L266.6 69.139l-20.331-10.866-23.835 2m-43.556 200.668 50.316-114.327.291-35.746" style="stroke:#000;stroke-miterlimit:10;stroke-width:1.5px;fill:none"/><path d="m277.84 55.913-8.24 6.431-3 6.795m-18.481-26.807-.681 10.588-1.17 5.352m23.01 35.257 5.795 9.947 5.394 3.7m-31.877 10.816.319-7.053 1.22-7.358" style="stroke:#000;stroke-miterlimit:10;stroke-width:1.5px;fill:none"/><path transform="translate(216.756 91.918)" style="stroke:#000;stroke-miterlimit:10;stroke-width:1.5px;fill:none" d="M7.427 0 0 11.383"/><path d="m249.337 110.625 25.445-6.983 5.286 3.822-31.247 10.3zm-2.317-57.846-.251 5.538-23.543 1.383z"/><path transform="translate(203.967 75.164)" style="stroke:#000;stroke-miterlimit:10;stroke-width:1.5px;fill:none" d="M13.437 0 0 4.057"/><path d="m228.578 109.73 12.369 4.658-12.124 33.8z"/><path d="m184.567 249.614 24.033 25.622 7.716-3 4.18-13.437" style="stroke:#000;stroke-miterlimit:10;stroke-width:1.5px;fill:none"/><path d="m209.077 274.335 3.858-13.491-8.335-9.244 3.759-10.878 9.6 7.984 4.979-12.814-24.974-17.894" style="stroke:#000;stroke-miterlimit:10;stroke-width:1.5px;fill:none"/><path d="m205.43 216.592 24.971 17.9-5.3 14.232-6.708.87" style="stroke:#000;stroke-miterlimit:10;stroke-width:1.5px;fill:none"/><path transform="translate(222.948 234.491)" style="stroke:#000;stroke-miterlimit:10;stroke-width:1.5px;fill:none" d="M7.453 0 0 1.397"/><path transform="translate(197.973 216.592)" style="stroke:#000;stroke-miterlimit:10;stroke-width:1.5px;fill:none" d="M7.456 0 0 1.401"/><path transform="translate(197.973 217.993)" style="stroke:#000;stroke-miterlimit:10;stroke-width:1.5px;fill:none" d="M10.39 22.725 0 0"/><path transform="translate(184.622 249.296)" style="stroke:#000;stroke-miterlimit:10;stroke-width:1.5px;fill:none" d="M19.982 2.3 0 0"/><path transform="translate(170.626 217.993)" style="stroke:#000;stroke-miterlimit:10;stroke-width:1.5px;fill:none" d="M0 38.523 27.348 0"/><path d="m204.792 251.46 7.828-.685 1.774-4.8" style="stroke:#000;stroke-miterlimit:10;stroke-width:1.5px;fill:none"/><path transform="translate(213.201 259.763)" style="stroke:#000;stroke-miterlimit:10;stroke-width:1.5px;fill:none" d="M0 1.451 7.136 0"/><path transform="translate(212.594 250.934)" style="stroke:#000;stroke-miterlimit:10;stroke-width:1.5px;fill:none" d="m0 0 8.306 9.415"/><path d="m204.533 251.365 3.667-10.345 6.227 4.748-1.731 5.191zm-25.94 9.966 4.925-11.45 6.9 4.854-1.816 5.177z"/><path transform="translate(208.042 236.107)" style="stroke:#000;stroke-miterlimit:10;stroke-width:1.5px;fill:none" d="M0 4.558 14.212 0"/><path transform="translate(184.958 239.955)" style="stroke:#000;stroke-miterlimit:10;stroke-width:1.5px;fill:none" d="M0 9.288 23.421 0"/><path d="m227.09 110.8-12.319-4.98-10.447-26.347" style="stroke:#000;stroke-miterlimit:10;stroke-width:1.5px;fill:none"/><path transform="translate(217.579 60.195)" style="stroke:#000;stroke-miterlimit:10;stroke-width:1.5px;fill:none" d="M7.316 0 0 14.562"/><path transform="translate(304.193 366.478)" style="stroke:#000;stroke-miterlimit:10;stroke-width:1.5px;fill:none" d="M0 1.838 6.886 0"/><path transform="translate(147.142 221.325)" style="stroke:#000;stroke-miterlimit:10;stroke-width:1.5px;fill:none" d="m0 0 1.782 3.429"/></svg>
