<svg xmlns="http://www.w3.org/2000/svg" width="80" height="80"><g style="clip-path:url(#7qisnqovoa)" transform="translate(13.383 13.462)"><path d="M53.235 24a24 24 0 1 1-24-24 24 24 0 0 1 24 24" style="fill:#f0f1f2"/><path d="M29.968 9.539v13.944a1.9 1.9 0 0 0 1.9 1.9h1.9v4.953a.634.634 0 0 0 1.123.4l6-5.357h9.36a1.9 1.9 0 0 0 1.9-1.9V9.539a1.9 1.9 0 0 0-1.9-1.9H31.87a1.9 1.9 0 0 0-1.9 1.9" style="fill:#fff"/><path d="M29.968 9.539v13.944a1.9 1.9 0 0 0 1.9 1.9h1.9v4.953a.634.634 0 0 0 1.123.4l6-5.357h9.36a1.9 1.9 0 0 0 1.9-1.9V9.539a1.9 1.9 0 0 0-1.9-1.9H31.87a1.9 1.9 0 0 0-1.902 1.9z" style="stroke:#000;stroke-miterlimit:10;stroke-width:2px;fill:none"/><path d="M36.067 16.389a5.483 5.483 0 1 0 5.483-5.483 5.483 5.483 0 0 0-5.483 5.483" style="fill:#fff"/><circle cx="5.483" cy="5.483" r="5.483" transform="translate(36.067 10.906)" style="stroke:#000;stroke-miterlimit:10;stroke-width:2px;fill:none"/><path transform="translate(37.845 12.512)" style="stroke:#000;stroke-miterlimit:10;stroke-width:2px;fill:none" d="m0 0 7.451 7.451"/></g><g style="clip-path:url(#7qisnqovoa)" transform="translate(13.383 13.462)"><path d="M29.463 35.4c0 7.715-6.563 13.969-14.66 13.969S.144 43.117.144 35.4 6.707 21.433 14.8 21.433s14.66 6.254 14.66 13.969" style="fill:#fff"/><path d="M21.085 41.454v6.934c0 1.78 1.578 3.206 3.691 3.438a1.018 1.018 0 0 0 .255.033h.352a1.018 1.018 0 0 0 .255-.033c2.113-.232 3.691-1.658 3.691-3.438v-2.553a1 1 0 1 0-2 0v2.553c0 .746-.973 1.4-2.122 1.466-1.149-.061-2.122-.72-2.122-1.466v-6.934zM6.619 41.5v4.088c0 .8-.874 1.471-1.982 1.471a1.758 1.758 0 0 1-1.91-1.471v-.759a1 1 0 0 0-2 0v.759a3.737 3.737 0 0 0 3.983 3.469 3.714 3.714 0 0 0 3.909-3.471V41.5c0-.016-.008-.028-.009-.044H6.628c0 .016-.009.028-.009.044m4.919 7.078c0 1.354-1.68 2.5-3.669 2.5H7.52a1 1 0 0 0 0 2h.349c3.126 0 5.669-2.018 5.669-4.5v-7.124h-2zm4.91-.244a1 1 0 0 0 2 0v-6.88h-2zM9.979 37.741a1.511 1.511 0 1 1-1.511-1.511 1.511 1.511 0 0 1 1.511 1.511m12.681 0a1.511 1.511 0 1 1-1.511-1.511 1.511 1.511 0 0 1 1.511 1.511"/><path d="M27.163 41.393a1 1 0 0 1-.863-1.5l.2-.342a7.628 7.628 0 0 0 1.285-4.675c0-6.592-5.784-11.957-12.894-11.957S2 28.28 2 34.872A7.624 7.624 0 0 0 3.433 39.8l-.81.59-.841.542A9.592 9.592 0 0 1 0 34.872c0-7.7 6.682-13.957 14.893-13.957s14.894 6.261 14.894 13.957a9.624 9.624 0 0 1-1.565 5.7l-.194.327a1 1 0 0 1-.865.5"/></g></svg>
