<svg xmlns="http://www.w3.org/2000/svg" width="254.367" height="82.739"><defs><clipPath id="a"><path style="fill:#afafaf" d="M0 0h252.276v35.25H0z"/></clipPath></defs><g transform="rotate(11 3.363 34.926)" style="clip-path:url(#a)"><path d="M17.832 10.888a28.579 28.579 0 0 1-5.77-2.271C10.993 8.032 9.627 6.98 9.336 7.49s.1.729.309 1.5a13.858 13.858 0 0 0 1.488 3.022 10.319 10.319 0 0 0 1.428 2.048c.755.788.641 1.213 2.069 2.327 2.841 2.218 2.56 3.062 7.265 5.175 13.786 6.192 28.218 8.576 45.129 9.45 8.487.44 20.71.582 31.018.107s22.062-1.479 33.34-2.634c17.218-1.763 36.279-4.1 53.827-5.31a231.136 231.136 0 0 1 27.2-.374 178.59 178.59 0 0 1 23.549 2.98 34.45 34.45 0 0 1 13.579 5.486c1.9 1.229 1.63 1.61 2.236 2.426s.656.785.2 1.248-.623.441-2.145-.27c-.489-.228-.278-.72-3.433-1.87s-4.745-2.692-12.352-3.938c-8.475-1.389-20.192-3.326-33.566-3.04s-34.209 1.702-50.647 3.677c-8.234.987-20.2 2.311-30.348 3.266s-23.334 1.767-34.42 1.764a326.174 326.174 0 0 1-34.82-1.707 103.011 103.011 0 0 1-30.989-8.8c-6.3-2.948-9.2-7.619-12.163-11.424-1.54-1.981-.769-4.267-1.634-3.93s-.95 2.483-1.428 4.406.069 7.957.636 10.183c.367 1.441 1.856 5.649-.49 4.753-1.374-.524-2.42-2.711-3.084-4.139A15.4 15.4 0 0 1 .269 21.1a16.6 16.6 0 0 1-.263-2.352A28.977 28.977 0 0 1 1.819 8.219 18.89 18.89 0 0 1 3.54 4.9 13.183 13.183 0 0 1 5.2 2.7 9.549 9.549 0 0 1 7.653.531C8.412.173 8.15-.2 8.958.123s.981 1.108 1.842 2.426a19.528 19.528 0 0 0 5.9 4.591 34.714 34.714 0 0 0 7.028 2.06c1.413.21 2.057.047 2.332.532.763 1.34-1.56 1.48-2.652 1.709a21.949 21.949 0 0 1-5.576-.554" transform="translate(-.001)" style="fill:#afafaf"/></g></svg>
