<svg xmlns="http://www.w3.org/2000/svg" width="18.028" height="18.028"><path d="M4.026 0a1.208 1.208 0 0 1 1.208 1.207v15.614a1.208 1.208 0 0 1-1.208 1.207H1.208A1.208 1.208 0 0 1 0 16.821V1.207A1.208 1.208 0 0 1 1.208 0zm5.556 0a1.208 1.208 0 0 1 1.208 1.207v.642A1.208 1.208 0 0 1 11.8.924l2.791-.392a1.208 1.208 0 0 1 1.364 1.027l2.061 14.665a1.208 1.208 0 0 1-1.028 1.364l-2.788.392a1.208 1.208 0 0 1-1.364-1.027L10.79 2.42v14.4a1.208 1.208 0 0 1-1.19 1.208H6.764a1.208 1.208 0 0 1-1.208-1.207V1.207A1.208 1.208 0 0 1 6.764 0zM4.026 1.207H1.208v15.614h2.818V1.207zm5.556 0H6.764v15.614h2.818zm5.176.52-2.791.392 2.061 14.665 2.791-.392-2.06-14.665zM2.617 14.205a.8.8 0 1 1-.805.8.805.805 0 0 1 .805-.8zm5.556 0a.8.8 0 1 1-.805.8.805.805 0 0 1 .805-.8zm7.026-.3a.8.8 0 1 1-.805.8.805.805 0 0 1 .806-.805z"/></svg>
