<svg xmlns="http://www.w3.org/2000/svg" viewBox="0 0 16 16" style="enable-background:new 0 0 16 16" xml:space="preserve"><style>.st0,.st1{fill:none;stroke:#afafaf;stroke-linejoin:round}.st0{stroke-linecap:round}.st1{stroke-width:.5}</style><path class="st0" d="M11.45 4.31c.77.56 1.47 1.22 2.08 1.95 0 0-2.68 3.41-6 3.41-.53 0-1.06-.09-1.56-.24M3.6 8.2c-.77-.56-1.46-1.22-2.07-1.95 0 0 2.68-3.41 6-3.41.44 0 .88.06 1.3.17"/><path class="st0" d="M5.44 6.25c0-1.16.93-2.1 2.08-2.1 0 0 0 0 0 0m2.09 2.1c0 1.16-.93 2.1-2.08 2.1 0 0 0 0 0 0m5.08-7.21L2.44 11.37"/><path class="st1" d="m13.82 12.41-1.16-1.26-.44-1.71-3.98 2.45.08 1.93 1.52 1.04 3.98-2.45z"/><path class="st1" d="m8.24 11.89-1.38 2.83 2.99.14m3.96-2.44.66-2.38-2.27-.59m2.27.59-7.61 4.68"/></svg>
