<svg xmlns="http://www.w3.org/2000/svg" width="54.773" height="54.773"><g style="clip-path:url(#gjqowxcboa)"><path d="M41.49 27.539a14.575 14.575 0 1 1-14.575-14.574A14.574 14.574 0 0 1 41.49 27.539" style="fill:#f0f1f2"/><path d="M23.166 6.3 8.173 17.13 31.5 23.793l14.988-10.828zm-5.831 27.535-2.5 1.8m13.326-4.588-5-1.427L19 32.632m14.991.085-4.167-1.19m9.167 2.619-3.327-.951m-22.5 3.648-5 3.609L31.5 47.116l14.988-10.829-5.827-1.665M8.173 17.13v23.322M31.5 23.793v23.323m-8.329-22.49v5m0-10.828v4.162m0-9.162v3.332m0-10.829v5.831m23.322.833v23.322" style="stroke-width:2px;stroke:#969696;stroke-linejoin:round;fill:none"/><path d="M33.994 47.115a2.5 2.5 0 1 1-2.5-2.5 2.5 2.5 0 0 1 2.5 2.5" style="fill:#fff"/><circle cx="2.499" cy="2.499" r="2.499" transform="translate(28.996 44.616)" style="stroke:#898989;stroke-miterlimit:10;stroke-width:2px;fill:none"/><path d="M48.987 36.287a2.5 2.5 0 1 1-2.5-2.5 2.5 2.5 0 0 1 2.5 2.5" style="fill:#fff"/><path d="M48.987 36.287a2.5 2.5 0 1 1-2.5-2.5 2.5 2.5 0 0 1 2.5 2.5z" style="stroke:#898989;stroke-miterlimit:10;stroke-width:2px;fill:none"/><path d="M25.665 29.625a2.5 2.5 0 1 1-2.5-2.5 2.5 2.5 0 0 1 2.5 2.5" style="fill:#fff"/><path d="M25.665 29.625a2.5 2.5 0 1 1-2.5-2.5 2.5 2.5 0 0 1 2.5 2.5z" style="stroke:#898989;stroke-miterlimit:10;stroke-width:2px;fill:none"/><path d="M10.672 40.452a2.5 2.5 0 1 1-2.5-2.5 2.5 2.5 0 0 1 2.5 2.5" style="fill:#fff"/><circle cx="2.499" cy="2.499" r="2.499" transform="translate(5.674 37.953)" style="stroke:#898989;stroke-miterlimit:10;stroke-width:2px;fill:none"/><path d="M10.672 17.13a2.5 2.5 0 1 1-2.5-2.5 2.5 2.5 0 0 1 2.5 2.5" style="fill:#fff"/><path d="M10.672 17.13a2.5 2.5 0 1 1-2.5-2.5 2.5 2.5 0 0 1 2.5 2.5z" style="stroke:#898989;stroke-miterlimit:10;stroke-width:2px;fill:none"/><path d="M25.664 6.3a2.5 2.5 0 1 1-2.5-2.5 2.5 2.5 0 0 1 2.5 2.5" style="fill:#fff"/><path d="M25.664 6.3a2.5 2.5 0 1 1-2.5-2.5 2.5 2.5 0 0 1 2.5 2.5z" style="stroke:#898989;stroke-miterlimit:10;stroke-width:2px;fill:none"/><path d="M48.986 12.965a2.5 2.5 0 1 1-2.5-2.5 2.5 2.5 0 0 1 2.5 2.5" style="fill:#fff"/><path d="M48.986 12.965a2.5 2.5 0 1 1-2.5-2.5 2.5 2.5 0 0 1 2.5 2.5z" style="stroke:#898989;stroke-miterlimit:10;stroke-width:2px;fill:none"/><path d="M33.994 23.793a2.5 2.5 0 1 1-2.5-2.5 2.5 2.5 0 0 1 2.5 2.5" style="fill:#fff"/><circle cx="2.499" cy="2.499" r="2.499" transform="translate(28.996 21.294)" style="stroke:#898989;stroke-miterlimit:10;stroke-width:2px;fill:none"/></g></svg>
