<svg xmlns="http://www.w3.org/2000/svg" viewBox="0 0 16 16" style="enable-background:new 0 0 16 16" xml:space="preserve"><style>.st2,.st3{fill:none;stroke:#000;stroke-linejoin:round}.st2{stroke-width:.5}.st3{stroke-linecap:round}</style><path class="st2" d="m13.81 12.44-1.16-1.26-.44-1.71-3.98 2.45.08 1.93 1.52 1.04 3.98-2.45z"/><path class="st2" d="m8.23 11.92-1.38 2.83 2.99.14m3.96-2.44.66-2.38-2.26-.58m2.26.57-7.61 4.68"/><path class="st3" d="M13.53 6.25s-2.68 3.28-5.99 3.28-5.98-3.28-5.98-3.28 2.68-3.27 5.98-3.27 5.99 3.27 5.99 3.27h0z"/><path class="st3" d="M9.63 6.25a2.047 2.047 0 0 1-2.09 2.01c-1.13.02-2.06-.88-2.08-2.01a2.06 2.06 0 0 1 2.08-2.02s0 0 0 0c1.14-.02 2.07.89 2.09 2.02z"/></svg>
