<svg xmlns="http://www.w3.org/2000/svg" width="23.906" height="28.816"><path d="M14.352 28.816H.457A.462.462 0 0 1 0 28.348V7.605a.472.472 0 0 1 .155-.351L8.08.116A.451.451 0 0 1 8.382 0h15.006a.462.462 0 0 1 .457.466l.061 19.267a.475.475 0 0 1-.1.3l-6.797 8.427a.451.451 0 0 1-.505.143.467.467 0 0 1-.3-.437l-.133-20.092H3.034a.457.457 0 0 1-.427-.3.475.475 0 0 1 .124-.516l2.653-2.412a.418.418 0 0 1 .308-.118l12.925.14a.462.462 0 0 1 .452.467v16l2.549-3.175-.106-15.7H9.024l-.559.556h11.924a.462.462 0 0 1 .457.467V17.9a.457.457 0 1 1-.913 0V3.946H7.339a.457.457 0 0 1-.423-.292.475.475 0 0 1 .105-.511l1.5-1.491a.451.451 0 0 1 .318-.132h13.126a.462.462 0 0 1 .457.464l.111 16.338a.474.474 0 0 1-.1.3l-3.463 4.315a.449.449 0 0 1-.507.143.467.467 0 0 1-.3-.44V5.8l-12.3-.133L4.236 7.14h12.288a.462.462 0 0 1 .457.464l.119 19.267 5.888-7.3L22.933.935H8.554L.913 7.816v20.065h13.439a.467.467 0 0 1 0 .935" style="fill:#6f6f6f"/></svg>
