<svg xmlns="http://www.w3.org/2000/svg" width="23.405" height="22.781"><path d="m282.715 617.223-3.56.807-3.56-.807v8.877l3.583 1.2 3.537-1.2z" transform="rotate(44.03 905.053 -12.485)" style="stroke-linejoin:round;fill:none;stroke:#fff"/><path d="m275.6 628.224 3.56 4.877 3.56-4.877" transform="rotate(44.03 907.676 -11.425)" style="stroke-linejoin:round;fill:none;stroke:#fff"/><path d="m282.715 616.486-3.56-3.263-3.56 3.263" transform="rotate(44.03 904.1 -12.87)" style="stroke-linejoin:round;fill:none;stroke:#fff"/><path d="M0 0v16.985" transform="rotate(44.03 6.162 25.753)" style="fill:none;stroke:#fff"/><path d="M22 3.986H0V0h7.174v.207c0 .626.861 1.139 1.913 1.139h4.3C14.443 1.345 15.3.833 15.3.207V0H22v3.986z" style="stroke-linecap:round;stroke-linejoin:round;fill:none;stroke:#fff" transform="translate(.702 18.295)"/><path d="M0 4.233 3.348 0h1.515" style="stroke-linecap:round;stroke-linejoin:round;fill:none;stroke:#fff" transform="translate(.702 14.062)"/><path d="M1 0h1.87l3.347 4.233" transform="translate(16.485 14.062)" style="stroke-linecap:round;stroke-linejoin:round;fill:none;stroke:#fff"/></svg>
