<svg xmlns="http://www.w3.org/2000/svg" width="21" height="19.798"><defs><style>.cls-2{stroke:#fff;stroke-linejoin:round;stroke-linecap:round;fill:none}</style></defs><path d="M8 0H0l4 4 4-4z" style="stroke-linecap:round;stroke:#fff;stroke-linejoin:round;fill:#fff" transform="translate(12.5 15.08)"/><path class="cls-2" d="M1.899 14.289h8.471"/><path d="M0 0h14.729" style="fill:none;stroke:#fff;stroke-linejoin:round" transform="translate(2.205 4.683)"/><path class="cls-2" d="M18.501 9.486H.512m8.501 9.594A9.119 9.119 0 0 1 .5 9.886 9.1 9.1 0 0 1 9.5.68a10.851 10.851 0 0 1 7.408 3.789A9.076 9.076 0 0 1 18.84 9.78a7.268 7.268 0 0 1-.1 1.938"/><path class="cls-2" d="M9.723.706c-6 5.2-6.645 11.982-.645 18.385M9.756.706a15.692 15.692 0 0 1 4.445 10.974"/></svg>
